<svg width="138" height="37" viewBox="0 0 138 37" fill="none" xmlns="http://www.w3.org/2000/svg">
<path opacity="0.25" fill-rule="evenodd" clip-rule="evenodd" d="M119 36C128.665 36 136.5 28.165 136.5 18.5C136.5 8.83502 128.665 1 119 1C109.335 1 101.5 8.83502 101.5 18.5C101.5 28.165 109.335 36 119 36Z" stroke="white" stroke-width="1.5"/>
<path d="M124.72 15.2647C124.639 15.1729 124.508 15.1498 124.401 15.2064C124.334 15.2416 124.208 15.2878 124.059 15.3334C124.247 15.0762 124.399 14.7882 124.465 14.5293C124.494 14.4177 124.452 14.3001 124.36 14.2336C124.268 14.1677 124.146 14.1677 124.054 14.2336C123.909 14.3375 123.21 14.6497 122.768 14.7508C121.77 13.8511 120.607 13.7577 119.399 14.4831C118.417 15.0729 118.203 16.2721 118.245 17.0031C115.997 16.7805 114.6 15.5593 113.813 14.5485C113.758 14.4776 113.669 14.4403 113.586 14.4458C113.499 14.4524 113.419 14.5024 113.375 14.5799C113.003 15.2257 112.9 15.9396 113.077 16.6447C113.175 17.0295 113.345 17.3686 113.542 17.6434C113.447 17.5956 113.356 17.5357 113.27 17.4642C113.191 17.3972 113.08 17.3845 112.987 17.429C112.894 17.4747 112.834 17.5714 112.834 17.6775C112.834 18.8882 113.571 19.6962 114.258 20.1183C114.147 20.1045 114.031 20.0792 113.914 20.0424C113.814 20.0111 113.705 20.0424 113.635 20.1238C113.566 20.2046 113.549 20.32 113.593 20.4184C113.979 21.2972 114.711 21.9017 115.617 22.121C114.826 22.5986 113.767 22.8328 112.798 22.7179C112.672 22.6998 112.553 22.7817 112.513 22.9059C112.474 23.0301 112.525 23.1664 112.636 23.2301C114.107 24.0793 115.436 24.3827 116.585 24.3827C118.257 24.3827 119.547 23.7407 120.333 23.2038C122.45 21.7583 123.77 19.163 123.586 16.841C123.926 16.5832 124.433 16.1072 124.748 15.5955C124.813 15.4922 124.801 15.3559 124.72 15.2647Z" fill="white"/>
<path opacity="0.25" fill-rule="evenodd" clip-rule="evenodd" d="M69 36C78.665 36 86.5 28.165 86.5 18.5C86.5 8.83502 78.665 1 69 1C59.335 1 51.5 8.83502 51.5 18.5C51.5 28.165 59.335 36 69 36Z" stroke="white" stroke-width="1.5"/>
<path d="M70.5933 14.0205H72.2017C72.3497 14.0205 72.4698 13.9074 72.4698 13.7679V12.2524C72.4698 12.1129 72.3497 11.9998 72.2017 11.9998H70.5933C68.9678 11.9998 67.6446 13.2461 67.6446 14.7783V16.5465H65.7682C65.6202 16.5465 65.5001 16.6597 65.5001 16.7991V18.3147C65.5001 18.4541 65.6202 18.5673 65.7682 18.5673H67.6446V23.8719C67.6446 24.0113 67.7647 24.1245 67.9127 24.1245H69.5211C69.669 24.1245 69.7891 24.0113 69.7891 23.8719V18.5673H71.6656C71.7808 18.5673 71.8832 18.4976 71.9202 18.3945L72.4564 16.8789C72.4837 16.8021 72.4698 16.7173 72.4194 16.6511C72.3684 16.5854 72.288 16.5465 72.2017 16.5465H69.7891V14.7783C69.7891 14.3605 70.1499 14.0205 70.5933 14.0205Z" fill="white"/>
<path opacity="0.25" fill-rule="evenodd" clip-rule="evenodd" d="M19 36C28.665 36 36.5 28.165 36.5 18.5C36.5 8.83502 28.665 1 19 1C9.33502 1 1.5 8.83502 1.5 18.5C1.5 28.165 9.33502 36 19 36Z" stroke="white" stroke-width="1.5"/>
<path d="M14.9837 14.9671C15.803 14.9671 16.4672 14.3029 16.4672 13.4835C16.4672 12.6642 15.803 12 14.9837 12C14.1643 12 13.5001 12.6642 13.5001 13.4835C13.5001 14.3029 14.1643 14.9671 14.9837 14.9671Z" fill="white"/>
<path d="M16.2198 15.958H13.7473C13.6108 15.958 13.5 16.0688 13.5 16.2053V23.623C13.5 23.7595 13.6108 23.8703 13.7473 23.8703H16.2198C16.3563 23.8703 16.4671 23.7595 16.4671 23.623V16.2053C16.4671 16.0688 16.3563 15.958 16.2198 15.958Z" fill="white"/>
<path d="M23.5882 15.5466C22.5314 15.1847 21.2095 15.5026 20.4168 16.0728C20.3896 15.9665 20.2927 15.8874 20.1775 15.8874H17.7049C17.5684 15.8874 17.4576 15.9981 17.4576 16.1346V23.5524C17.4576 23.6889 17.5684 23.7996 17.7049 23.7996H20.1775C20.314 23.7996 20.4247 23.6889 20.4247 23.5524V18.2215C20.8243 17.8773 21.3391 17.7675 21.7604 17.9465C22.1689 18.1191 22.4028 18.5404 22.4028 19.1017V23.5524C22.4028 23.6889 22.5136 23.7996 22.6501 23.7996H25.1227C25.2591 23.7996 25.3699 23.6889 25.3699 23.5524V18.6037C25.3417 16.5718 24.3858 15.8196 23.5882 15.5466Z" fill="white"/>
</svg>
